<?xml version="1.0" encoding="utf-8"?>
<!-- Generator: Adobe Illustrator 21.0.0, SVG Export Plug-In . SVG Version: 6.00 Build 0)  -->
<svg version="1.1" xmlns="http://www.w3.org/2000/svg" xmlns:xlink="http://www.w3.org/1999/xlink" x="0px" y="0px"
	 viewBox="0 0 1436.3 195.5" style="enable-background:new 0 0 1436.3 195.5;" xml:space="preserve">
<style type="text/css">
	.st0{display:none;}
	.st1{display:inline;fill:#3C3C3B;}
	.st2{fill:#ECEFF7;}
	.st3{fill:#A56798;}
	.st4{fill:#9CCDF0;}
	.st5{opacity:0.16;fill:url(#);}
	.st6{fill:#F3F5FA;}
	.st7{fill:#F2B601;}
	.st8{fill:#1B2A49;}
	.st9{fill:#3A7FC2;}
	.st10{fill:#182027;}
	.st11{fill:none;stroke:#000000;stroke-miterlimit:10;}
	.st12{fill:none;stroke:#020203;stroke-width:2;stroke-miterlimit:10;}
	.st13{fill:none;stroke:#020203;stroke-width:2;stroke-linejoin:bevel;stroke-miterlimit:10;}
	.st14{fill:none;stroke:#000000;stroke-width:10;stroke-miterlimit:10;}
	.st15{fill:none;stroke:#3A7FC2;stroke-width:2;stroke-miterlimit:10;}
	.st16{fill:#F8F9FC;}
	.st17{fill:none;stroke:#1B2A49;stroke-width:4;stroke-miterlimit:10;}
	.st18{opacity:0.42;}
	.st19{fill:none;stroke:#FFFFFF;stroke-width:2;stroke-miterlimit:10;}
	.st20{fill:none;stroke:#FFFFFF;stroke-width:2;stroke-linejoin:bevel;stroke-miterlimit:10;}
	.st21{fill:#D22262;}
	.st22{fill:none;stroke:#1B2A49;stroke-miterlimit:10;}
	.st23{fill:none;stroke:url(#);stroke-miterlimit:10;}
	.st24{fill:#F08680;}
	.st25{fill:#DE4F52;}
	.st26{fill:#F5F7FB;}
	.st27{fill:none;stroke:#3A7FC2;stroke-width:5;stroke-miterlimit:10;}
	.st28{fill:#B8C0D6;}
	.st29{opacity:0.1;fill:url(#);}
</style>
<g id="Слой_2" class="st0">
	<rect x="-11178" y="-3294.7" class="st1" width="16469.1" height="16469.1"/>
</g>
<g id="Слой_1">
	<g>
		<g>
			<path class="st26" d="M169.9,133.9c2.9,10.9,3.2,20,3.5,20h0.5c0,0,0.8-9.3,3.2-20L208.2,3.2h35.4l-48.7,189.1h-39.7l-29-111.8
				c-3.2-12.3-4.8-24.8-4.8-24.8h-0.5c0,0-1.6,12.5-4.8,24.8l-29,111.8H47.4L0,3.2h35.4l29.8,130.8c2.4,10.7,3.2,20,3.2,20H69
				c0.3,0,0.5-9.1,3.5-20L106.5,3.2h29.8L169.9,133.9z"/>
			<path class="st26" d="M292.3,3.2h113.2v29.6h-78.8v49.5h63.6v29.6h-63.6v50.9h83.1v29.6H292.3V3.2z"/>
			<path class="st26" d="M465.3,3.2h34.4v159.5h81.8v29.6H465.3V3.2z"/>
			<path class="st26" d="M708,0c46.1,0,69.8,25.8,69.8,25.8l-16.5,25.6c0,0-21.6-20-51.7-20c-39.9,0-63.4,29.8-63.4,65
				c0,36,24.2,67.6,63.6,67.6c32.8,0,54.9-24,54.9-24l18.1,24.8c0,0-26.1,30.6-74.3,30.6c-57.8,0-97.7-42.9-97.7-98.5
				C610.8,42.1,652.3,0,708,0z"/>
			<path class="st26" d="M913.9,0c55.7,0,97.7,42.3,97.7,96.4c0,55.7-42.1,99.1-97.7,99.1c-55.7,0-97.7-43.4-97.7-99.1
				C816.1,42.3,858.2,0,913.9,0z M913.9,164c34.6,0,62.3-28.8,62.3-67.6c0-37.3-27.7-65-62.3-65c-34.6,0-62.3,27.7-62.3,65
				C851.5,135.3,879.2,164,913.9,164z"/>
			<path class="st26" d="M1074.8,3.2h36.7l37,93.5c4.3,11.2,9.6,27.7,9.6,27.7h0.5c0,0,5.1-16.5,9.3-27.7l37-93.5h36.7l15.2,189.1
				h-34.1l-8-105.7c-0.8-12.5-0.3-29.3-0.3-29.3h-0.5c0,0-5.6,18.4-10.1,29.3l-30.6,73.2h-30.1l-30.4-73.2
				c-4.5-10.9-10.4-29.6-10.4-29.6h-0.5c0,0,0.5,17-0.3,29.6l-8,105.7h-34.4L1074.8,3.2z"/>
			<path class="st26" d="M1318.8,3.2H1432v29.6h-78.8v49.5h63.6v29.6h-63.6v50.9h83.1v29.6h-117.4V3.2z"/>
		</g>
	</g>
</g>
</svg>
