<?xml version="1.0" encoding="utf-8"?>
<!-- Generator: Adobe Illustrator 21.0.0, SVG Export Plug-In . SVG Version: 6.00 Build 0)  -->
<svg version="1.1" xmlns="http://www.w3.org/2000/svg" xmlns:xlink="http://www.w3.org/1999/xlink" x="0px" y="0px"
	 viewBox="0 0 1464.6 195.5" style="enable-background:new 0 0 1464.6 195.5;" xml:space="preserve">
<style type="text/css">
	.st0{display:none;}
	.st1{display:inline;fill:#3C3C3B;}
	.st2{fill:#ECEFF7;}
	.st3{fill:#A56798;}
	.st4{fill:#9CCDF0;}
	.st5{opacity:0.16;fill:url(#);}
	.st6{fill:#F3F5FA;}
	.st7{fill:#F2B601;}
	.st8{fill:#1B2A49;}
	.st9{fill:#3A7FC2;}
	.st10{fill:#182027;}
	.st11{fill:none;stroke:#000000;stroke-miterlimit:10;}
	.st12{fill:none;stroke:#020203;stroke-width:2;stroke-miterlimit:10;}
	.st13{fill:none;stroke:#020203;stroke-width:2;stroke-linejoin:bevel;stroke-miterlimit:10;}
	.st14{fill:none;stroke:#000000;stroke-width:10;stroke-miterlimit:10;}
	.st15{fill:none;stroke:#3A7FC2;stroke-width:2;stroke-miterlimit:10;}
	.st16{fill:#F8F9FC;}
	.st17{fill:none;stroke:#1B2A49;stroke-width:4;stroke-miterlimit:10;}
	.st18{opacity:0.42;}
	.st19{fill:none;stroke:#FFFFFF;stroke-width:2;stroke-miterlimit:10;}
	.st20{fill:none;stroke:#FFFFFF;stroke-width:2;stroke-linejoin:bevel;stroke-miterlimit:10;}
	.st21{fill:#D22262;}
	.st22{fill:none;stroke:#1B2A49;stroke-miterlimit:10;}
	.st23{fill:none;stroke:url(#);stroke-miterlimit:10;}
	.st24{fill:#F08680;}
	.st25{fill:#DE4F52;}
	.st26{fill:#F5F7FB;}
	.st27{fill:none;stroke:#3A7FC2;stroke-width:5;stroke-miterlimit:10;}
	.st28{fill:#B8C0D6;}
	.st29{opacity:0.1;fill:url(#);}
</style>
<g id="Слой_2" class="st0">
	<rect x="-11173" y="-3961.9" class="st1" width="16469.1" height="16469.1"/>
</g>
<g id="Слой_1">
	<g>
		<g>
			<path class="st26" d="M0,3.2h73c35.4,0,60.2,24.8,60.2,61.5c0,36.7-24.8,62.3-60.2,62.3H34.4v65.2H0V3.2z M66.6,97.2
				c20,0,31.7-12.8,31.7-32.5c0-19.4-11.7-32-31.2-32H34.4v64.4H66.6z"/>
			<path class="st26" d="M182.2,3.2h61c20.5,0,29.8,1.6,38.1,5.3c18.9,8.5,30.9,26.6,30.9,51.7c0,22.6-12,43.7-32,51.7v0.5
				c0,0,2.7,2.7,6.4,9.3l38.9,70.6h-38.3l-37.5-70.6h-33v70.6h-34.4V3.2z M247.5,91.9c18.4,0,29.8-10.9,29.8-29.8
				c0-18.1-7.7-29.3-34.6-29.3h-26.1v59.1H247.5z"/>
			<path class="st26" d="M458.8,0c55.7,0,97.7,42.3,97.7,96.4c0,55.7-42.1,99.1-97.7,99.1c-55.7,0-97.7-43.4-97.7-99.1
				C361.1,42.3,403.2,0,458.8,0z M458.8,164c34.6,0,62.3-28.8,62.3-67.6c0-37.3-27.7-65-62.3-65c-34.6,0-62.3,27.7-62.3,65
				C396.5,135.3,424.2,164,458.8,164z"/>
			<path class="st26" d="M596.6,125.4h34.1v8.8c0,22.4,12.2,29.8,25,29.8c12.8,0,24.2-7.7,24.2-28.2V32.8h-48.7V3.2h83.1v133.1
				c0,41.3-29.8,59.1-59.1,59.1c-29,0-58.6-18.4-58.6-59.1V125.4z"/>
			<path class="st26" d="M780.6,3.2h113.2v29.6h-78.8v49.5h63.6v29.6h-63.6v50.9H898v29.6H780.6V3.2z"/>
			<path class="st26" d="M1034.4,0c46.1,0,69.8,25.8,69.8,25.8l-16.5,25.6c0,0-21.6-20-51.7-20c-39.9,0-63.4,29.8-63.4,65
				c0,36,24.2,67.6,63.6,67.6c32.8,0,54.9-24,54.9-24l18.1,24.8c0,0-26.1,30.6-74.3,30.6c-57.8,0-97.7-42.9-97.7-98.5
				C937.2,42.1,978.7,0,1034.4,0z"/>
			<path class="st26" d="M1206.2,32.8h-62V3.2h158.4v29.6h-62v159.5h-34.4V32.8z"/>
			<path class="st26" d="M1355.7,143.8c0,0,20.5,20,47.1,20c14.4,0,27.4-7.5,27.4-22.9c0-33.8-89.2-28-89.2-86
				c0-31.4,27.2-54.9,63.4-54.9c37.3,0,56.5,20.2,56.5,20.2l-14.9,28c0,0-18.1-16.5-41.8-16.5c-16,0-28.5,9.3-28.5,22.6
				c0,33.6,88.9,25.3,88.9,85.7c0,30.1-22.9,55.4-62.3,55.4c-42.1,0-65.2-25.8-65.2-25.8L1355.7,143.8z"/>
		</g>
	</g>
</g>
</svg>
