<?xml version="1.0" encoding="utf-8"?>
<!-- Generator: Adobe Illustrator 21.0.0, SVG Export Plug-In . SVG Version: 6.00 Build 0)  -->
<svg version="1.1" xmlns="http://www.w3.org/2000/svg" xmlns:xlink="http://www.w3.org/1999/xlink" x="0px" y="0px"
	 viewBox="0 0 1541.3 195.5" style="enable-background:new 0 0 1541.3 195.5;" xml:space="preserve">
<style type="text/css">
	.st0{display:none;}
	.st1{display:inline;fill:#3C3C3B;}
	.st2{fill:#ECEFF7;}
	.st3{fill:#A56798;}
	.st4{fill:#9CCDF0;}
	.st5{opacity:0.16;fill:url(#);}
	.st6{fill:#F3F5FA;}
	.st7{fill:#F2B601;}
	.st8{fill:#1B2A49;}
	.st9{fill:#3A7FC2;}
	.st10{fill:#182027;}
	.st11{fill:none;stroke:#000000;stroke-miterlimit:10;}
	.st12{fill:none;stroke:#020203;stroke-width:2;stroke-miterlimit:10;}
	.st13{fill:none;stroke:#020203;stroke-width:2;stroke-linejoin:bevel;stroke-miterlimit:10;}
	.st14{fill:none;stroke:#000000;stroke-width:10;stroke-miterlimit:10;}
	.st15{fill:none;stroke:#3A7FC2;stroke-width:2;stroke-miterlimit:10;}
	.st16{fill:#F8F9FC;}
	.st17{fill:none;stroke:#1B2A49;stroke-width:4;stroke-miterlimit:10;}
	.st18{opacity:0.42;}
	.st19{fill:none;stroke:#FFFFFF;stroke-width:2;stroke-miterlimit:10;}
	.st20{fill:none;stroke:#FFFFFF;stroke-width:2;stroke-linejoin:bevel;stroke-miterlimit:10;}
	.st21{fill:#D22262;}
	.st22{fill:none;stroke:#1B2A49;stroke-miterlimit:10;}
	.st23{fill:none;stroke:url(#);stroke-miterlimit:10;}
	.st24{fill:#F08680;}
	.st25{fill:#DE4F52;}
	.st26{fill:#F5F7FB;}
	.st27{fill:none;stroke:#3A7FC2;stroke-width:5;stroke-miterlimit:10;}
	.st28{fill:#B8C0D6;}
	.st29{opacity:0.1;fill:url(#);}
</style>
<g id="Слой_2" class="st0">
	<rect x="-11130.5" y="-4583.8" class="st1" width="16469.1" height="16469.1"/>
</g>
<g id="Слой_1">
	<g>
		<g>
			<path class="st26" d="M97.2,0C143.3,0,167,25.8,167,25.8l-16.5,25.6c0,0-21.6-20-51.7-20c-39.9,0-63.4,29.8-63.4,65
				c0,36,24.2,67.6,63.6,67.6c32.8,0,54.9-24,54.9-24l18.1,24.8c0,0-26.1,30.6-74.3,30.6C39.9,195.5,0,152.6,0,96.9
				C0,42.1,41.5,0,97.2,0z"/>
			<path class="st26" d="M303.1,0c55.7,0,97.7,42.3,97.7,96.4c0,55.7-42.1,99.1-97.7,99.1s-97.7-43.4-97.7-99.1
				C205.3,42.3,247.4,0,303.1,0z M303.1,164c34.6,0,62.3-28.8,62.3-67.6c0-37.3-27.7-65-62.3-65s-62.3,27.7-62.3,65
				C240.8,135.3,268.5,164,303.1,164z"/>
			<path class="st26" d="M456.3,3.2h34.4l71.6,109.2c7.2,10.9,15.7,29.3,15.7,29.3h0.5c0,0-1.9-18.1-1.9-29.3V3.2h34.1v189.1h-34.1
				L505,83.4c-7.2-10.9-15.7-29.3-15.7-29.3h-0.5c0,0,1.9,18.1,1.9,29.3v108.9h-34.4V3.2z"/>
			<path class="st26" d="M717.8,32.8h-62V3.2h158.4v29.6h-62v159.5h-34.4V32.8z"/>
			<path class="st26" d="M936,143.8h-66.3l-16,48.5h-35.4L884.8,3.2h35.9l66.6,189.1h-35.4L936,143.8z M902.7,36
				c0,0-4.3,18.6-8,29.3l-16.8,50.6h49.5l-16.8-50.6c-3.5-10.7-7.5-29.3-7.5-29.3H902.7z"/>
			<path class="st26" d="M1111,0c46.1,0,69.8,25.8,69.8,25.8l-16.5,25.6c0,0-21.6-20-51.7-20c-39.9,0-63.4,29.8-63.4,65
				c0,36,24.2,67.6,63.6,67.6c32.8,0,54.9-24,54.9-24l18.1,24.8c0,0-26.1,30.6-74.3,30.6c-57.8,0-97.7-42.9-97.7-98.5
				C1013.8,42.1,1055.4,0,1111,0z"/>
			<path class="st26" d="M1282.8,32.8h-62V3.2h158.4v29.6h-62v159.5h-34.4V32.8z"/>
			<path class="st26" d="M1432.3,143.8c0,0,20.5,20,47.1,20c14.4,0,27.4-7.5,27.4-22.9c0-33.8-89.2-28-89.2-86
				c0-31.4,27.2-54.9,63.4-54.9c37.3,0,56.5,20.2,56.5,20.2l-14.9,28c0,0-18.1-16.5-41.8-16.5c-16,0-28.5,9.3-28.5,22.6
				c0,33.6,88.9,25.3,88.9,85.7c0,30.1-22.9,55.4-62.3,55.4c-42.1,0-65.2-25.8-65.2-25.8L1432.3,143.8z"/>
		</g>
	</g>
</g>
</svg>
